<?xml version="1.0" encoding="UTF-8" standalone="no"?>
<!-- Uploaded to: SVG Repo, www.svgrepo.com, Generator: SVG Repo Mixer Tools -->

<svg
   fill="#000000"
   height="800px"
   width="800px"
   version="1.1"
   id="Capa_1"
   viewBox="0 0 487.5 487.5"
   xml:space="preserve"
   sodipodi:docname="book-svgrepo-comwhitebg.svg"
   inkscape:export-filename="book-svgrepo-com.png"
   inkscape:export-xdpi="96"
   inkscape:export-ydpi="96"
   inkscape:version="1.3.2 (091e20ef0f, 2023-11-25)"
   xmlns:inkscape="http://www.inkscape.org/namespaces/inkscape"
   xmlns:sodipodi="http://sodipodi.sourceforge.net/DTD/sodipodi-0.dtd"
   xmlns="http://www.w3.org/2000/svg"
   xmlns:svg="http://www.w3.org/2000/svg"><defs
   id="defs4"><inkscape:path-effect
     effect="fillet_chamfer"
     id="path-effect4"
     is_visible="true"
     lpeversion="1"
     nodesatellites_param="F,0,0,1,0,0,0,1 @ F,0,0,1,0,0,0,1 @ F,0,0,1,0,0,0,1 @ F,0,0,1,0,0,0,1"
     radius="0"
     unit="px"
     method="auto"
     mode="F"
     chamfer_steps="1"
     flexible="false"
     use_knot_distance="true"
     apply_no_radius="true"
     apply_with_radius="true"
     only_selected="false"
     hide_knots="false" /></defs><sodipodi:namedview
   id="namedview4"
   pagecolor="#ffffff"
   bordercolor="#000000"
   borderopacity="0.84313725"
   inkscape:showpageshadow="2"
   inkscape:pageopacity="0.0"
   inkscape:pagecheckerboard="true"
   inkscape:deskcolor="#d1d1d1"
   labelstyle="default"
   inkscape:zoom="1.0288404"
   inkscape:cx="803.81761"
   inkscape:cy="482.09617"
   inkscape:window-width="2560"
   inkscape:window-height="1368"
   inkscape:window-x="0"
   inkscape:window-y="0"
   inkscape:window-maximized="1"
   inkscape:current-layer="Capa_1" />

<rect
   style="fill:#ffffff;fill-opacity:1;stroke-width:0.606938;stroke-dasharray:none"
   id="rect4"
   width="486.73755"
   height="486.4823"
   x="1.4606653"
   y="-485.19431"
   ry="102.55924"
   transform="rotate(90)"
   sodipodi:type="rect" /><g
   id="g4"
   transform="matrix(0.69197456,0,0,0.66451893,82.986327,80.533434)">
	<g
   id="g3">
		<path
   d="M 437,12.3 C 437,5.5 431.5,0 424.7,0 H 126.3 C 84.4,0 50.4,34.1 50.4,75.9 v 335.7 c 0,41.9 34.1,75.9 75.9,75.9 h 298.5 c 6.8,0 12.3,-5.5 12.3,-12.3 V 139.6 c 0,-6.8 -5.5,-12.3 -12.3,-12.3 H 126.3 C 98,127.3 74.9,104.2 74.9,75.9 74.9,47.6 98,24.5 126.3,24.5 H 424.8 C 431.5,24.5 437,19 437,12.3 Z M 126.3,151.8 H 412.5 V 463 H 126.3 C 98,463 74.9,439.9 74.9,411.6 V 131.7 c 13.5,12.5 31.6,20.1 51.4,20.1 z"
   id="path1" />
		<path
   d="m 130.5,64.8 c -6.8,0 -12.3,5.5 -12.3,12.3 0,6.8 5.5,12.3 12.3,12.3 h 280.1 c 6.8,0 12.3,-5.5 12.3,-12.3 0,-6.8 -5.5,-12.3 -12.3,-12.3 z"
   id="path2" />
		<path
   d="m 178,397.7 c 6.3,2.4 13.4,-0.7 15.8,-7.1 l 17.9,-46.8 h 62.7 c 0.5,0 0.9,-0.1 1.3,-0.1 l 17.9,46.9 c 1.9,4.9 6.5,7.9 11.4,7.9 1.5,0 2.9,-0.3 4.4,-0.8 6.3,-2.4 9.5,-9.5 7.1,-15.8 l -54,-141.2 c -3,-7.9 -10.4,-13 -18.8,-13 -8.4,0 -15.8,5.1 -18.8,13 l -54,141.2 c -2.4,6.3 0.8,13.3 7.1,15.8 z m 65.7,-137.7 22.7,59.3 h -45.3 z"
   id="path3" />
	</g>
</g></svg>
